<svg xmlns="http://www.w3.org/2000/svg" viewBox="0 0 720 520" fill="none">
  <rect width="720" height="520" rx="36" fill="#F3F8FD"/>
  <circle cx="152" cy="108" r="50" fill="#0F4C81" fill-opacity=".14"/>
  <circle cx="584" cy="112" r="38" fill="#0F766E" fill-opacity=".14"/>
  <rect x="128" y="164" width="464" height="244" rx="28" fill="#0F4C81"/>
  <rect x="156" y="194" width="408" height="184" rx="18" fill="#FFFFFF"/>
  <rect x="188" y="224" width="104" height="108" rx="16" fill="#EAF3FB"/>
  <path d="M214 306h52v-38a26 26 0 1 0-52 0v38Z" fill="#0F766E"/>
  <rect x="320" y="224" width="156" height="18" rx="9" fill="#D4E2F1"/>
  <rect x="320" y="258" width="122" height="18" rx="9" fill="#E2EDF7"/>
  <rect x="320" y="292" width="92" height="18" rx="9" fill="#0F766E"/>
  <rect x="320" y="326" width="136" height="18" rx="9" fill="#0F4C81"/>
  <circle cx="246" cy="436" r="24" fill="#0F766E"/>
  <circle cx="470" cy="436" r="24" fill="#0F766E"/>
</svg>
