<svg xmlns="http://www.w3.org/2000/svg" viewBox="0 0 720 520" fill="none">
  <rect width="720" height="520" rx="36" fill="#171A22"/>
  <circle cx="138" cy="106" r="48" fill="#E50914" fill-opacity=".18"/>
  <circle cx="580" cy="112" r="36" fill="#22C1C3" fill-opacity=".16"/>
  <rect x="118" y="160" width="484" height="250" rx="26" fill="#E50914"/>
  <rect x="146" y="188" width="428" height="194" rx="18" fill="#10151D"/>
  <rect x="178" y="220" width="96" height="126" rx="14" fill="#202633"/>
  <rect x="298" y="220" width="116" height="18" rx="9" fill="#243143"/>
  <rect x="298" y="254" width="168" height="18" rx="9" fill="#25374B"/>
  <rect x="298" y="288" width="100" height="18" rx="9" fill="#22C1C3"/>
  <rect x="298" y="322" width="134" height="18" rx="9" fill="#E50914"/>
  <path d="M212 264c0-20 16-36 36-36s36 16 36 36v42h-72v-42Z" fill="#E50914"/>
  <circle cx="232" cy="436" r="24" fill="#22C1C3"/>
  <circle cx="484" cy="436" r="24" fill="#22C1C3"/>
</svg>
